<?xml version="1.0" encoding="utf-8"?>
<!-- Generator: Adobe Illustrator 22.1.0, SVG Export Plug-In . SVG Version: 6.00 Build 0)  -->
<svg version="1.1" id="Layer_1" xmlns="http://www.w3.org/2000/svg" xmlns:xlink="http://www.w3.org/1999/xlink" x="0px" y="0px"
	 viewBox="0 0 340 152.7" style="enable-background:new 0 0 340 152.7;" xml:space="preserve">
<style type="text/css">
	.st0{fill:#FFFFFF;}
</style>
<g>
	<g>
		<path class="st0" d="M255.8,141.2c-11.8,0-25.6-2.2-41.3-6.6c-53.8-15.2-70.3,3.8-70.5,4l-2.7-2.2c0.7-0.9,17.8-21.1,74.2-5.2
			c23.3,6.6,42.9,8.2,56.9,4.7c10.7-2.7,15.5-7.7,16.5-10l3.2,1.4c-1.7,3.8-7.7,9.2-18.8,12C268,140.5,262.2,141.2,255.8,141.2z"/>
	</g>
	<g>
		<path class="st0" d="M193.7,115c-1,0-2.1-0.2-3.1-0.5c-7.4-2.4-10.6-13.2-7.1-23.9c1.7-5.1,4.6-9.5,8.2-12.4c3.8-3,8-4,11.7-2.8v0
			c3.7,1.2,6.5,4.5,7.8,9.2c1.2,4.4,1,9.7-0.7,14.8C207.4,108.7,200.4,115,193.7,115z M200.2,78.4c-2,0-4.2,0.9-6.3,2.6
			c-3.1,2.4-5.6,6.2-7,10.7c-2.9,8.8-0.6,17.7,4.8,19.5c5.5,1.8,12.6-4.1,15.4-12.9c1.5-4.5,1.7-9,0.6-12.8c-1-3.5-2.9-5.9-5.5-6.8
			l0,0C201.6,78.5,200.9,78.4,200.2,78.4z"/>
	</g>
	<g>
		<path class="st0" d="M128.5,147.8c-1.2,0-2.5-0.2-3.6-0.6c-4.2-1.4-7.2-5-8-9.9c-2.4-13.5,2.1-39.3,7.9-64.5
			c-10.7-0.6-20.4-5-29.1-9.6c-4.3,8-8.3,15.8-12,22.9c-2.4,4.6-4.6,9-6.7,13c-7.1,14.5-15.7,21.8-25.5,21.4
			c-4.9-0.2-9.3-2.8-11.4-6.9c-2-3.8-1.7-8.2,0.8-12.1l2.9,1.9c-1.8,2.8-2,5.9-0.6,8.6c1.5,2.9,4.7,4.9,8.4,5
			c8.3,0.3,15.8-6.3,22.2-19.5c2.1-4,4.4-8.4,6.8-13c3.8-7.3,7.8-15.1,12-23c-1-0.6-2-1.1-2.9-1.6c-5-2.8-9.7-5.4-13.9-7
			c-9.6-3.6-17.6-4.1-23.3-1.4c-3.7,1.7-6.4,4.8-8,9c-0.9,2.6-1.5,5.1-1.6,7.2c7.4,3.3,13.5,12.3,14.2,18.5c0.5,3.8-1,6.5-4.1,7.4
			c-0.9,0.3-2.4,0.3-4-0.8c-4.6-3.1-8.3-13.8-9.4-22.5c-0.7-0.2-1.3-0.3-2-0.3c-5.3,0.2-10.1,1.4-14.2,3.6
			c-5.1,2.8-9.3,7.3-12.7,13.6l-3.1-1.7c3.7-7,8.4-11.9,14.1-15c4.6-2.5,9.9-3.8,15.9-4c0.6,0,1.3,0.1,1.9,0.2
			c0.2-2.2,0.8-4.7,1.7-7.3c1.9-5.2,5.2-8.9,9.8-11c6.6-3.1,15.4-2.6,26,1.3c4.5,1.7,9.3,4.4,14.4,7.2c1,0.5,1.9,1.1,2.9,1.6
			C109.8,29.8,127.8,2.1,143,2.1c0.6,0,1.1,0.3,1.5,0.7c1.1,1.4,0.5,4.3-5.7,28.2c-2.9,11-6.4,24.5-9.7,38.3
			c5.8-0.3,11.9-2,18.2-5.6l3.1-2l0,0.1c0.3-0.2,0.5-0.4,0.8-0.6c1.4-6.1,3-12.5,5.1-18.8c3.2-11.5,11.2-28.9,17.4-30
			c1.5-0.3,2.9,0.3,3.9,1.7c4.9,6.9-2.7,32.7-23.2,49.1c-2.1,9.4-3.4,18.2-4.4,24.9c-0.5,3-0.9,5.6-1.2,7.6
			c-1.1,6-0.5,10.9,1.6,13.4c1.3,1.6,3.2,2.4,5.9,2.4c8,0,14-10.4,14.8-18.4c-4.4-1.6-8.8-4.8-9.5-8.7c-0.4-2.2,0.5-4.3,2.6-5.8
			c2.6-1.9,4.7-1.3,5.7-0.8c4,2,4.7,9.1,4.8,12.8c4,0.8,7.5,0.1,9.8-2.1l0.5,0.5l2.6,0.7c-0.4,1.6,0.3,2.2,0.5,2.4
			c2.1,1.7,8.8,1.5,20.8-4.5c0.7-0.3,1.7-0.8,2.8-1.3c2.3-1.1,8.1-3.7,11.2-5.8c1.2-4.1,2.1-4.2,3-4.2c0.5,0,1.7,0.1,2.3,1.9
			c0.5,1.5-0.3,2.9-2.3,4.5c-0.5,2-1.3,5.3-2.2,10.6c-2,11.6-1,16.5,4,18.1c5.5,1.8,12.6-4.1,15.4-12.9c0.4-1.2,0.8-2.4,1.1-3.6
			c0.1-0.4,0.1-0.8,0.2-1.2l3.4-14.4l3.4,0.7c-0.1,0.3-1.2,7.5-3.6,15.8c-0.6,3.7-1.5,10.9,1.2,14.2c1,1.2,2.6,1.8,4.7,1.8
			c5.3,0,8.2-9.4,10.7-17.7c0.4-1.4,0.8-2.8,1.3-4.1c1.1-7.5,2.7-18.4,5.2-29.7c-15.2-3.2-20.6-1.7-22.5-0.2
			c-0.8,0.6-1.1,1.3-1.1,2.2h-3.5c0-2,0.9-3.7,2.5-5c4-3,12.3-3.1,25.4-0.4c1.3-5.4,2.7-10.8,4.4-15.9c3.2-11.5,11.2-28.9,17.4-30
			c1.5-0.3,2.9,0.3,3.9,1.7c4,5.6-2.3,15.6-14.9,35.5c-1.9,3-4,6.3-6.2,9.8c2.8,0.7,5.9,1.5,9.1,2.4c20.5,5.9,25.5,3.4,26.7,2.1
			c0.9-1.1,0.3-2.6,0.3-2.7l3.2-1.5c0.6,1.3,1.1,4.1-0.8,6.4c-3.6,4.2-13.5,3.9-30.3-0.9c-3.8-1.1-7.1-2-10.2-2.7
			c-2.6,12-4.3,23.5-5.4,30.9c-0.3,2.1-0.6,3.9-0.8,5.3c-1.2,7.3,0.9,13.2,5.2,14.7c3.1,1.1,6.5-0.7,9.7-5l2.8,2.1
			c-5.8,7.8-11.5,7-13.7,6.2c-4.1-1.4-6.8-5.4-7.6-10.7c-2.4,6-5.6,10.7-10.9,10.7c-3.2,0-5.7-1-7.4-3.1c-1.4-1.7-2.2-4-2.5-6.5
			c-4.3,7.1-11.2,11-17.1,9.1c-8.9-2.9-7.9-12.9-6.3-22.1c0.5-2.9,1-5.3,1.4-7.3c-2.3,1.2-5.1,2.6-8.6,4.2c-1.1,0.5-2.1,1-2.7,1.3
			c-11.9,5.9-20.6,7.3-24.6,4.1c-0.7-0.5-1.2-1.2-1.5-2c-2.7,1.5-6.2,1.9-9.9,1.3c-1.2,9.2-8.2,21-18.2,21c-3.7,0-6.6-1.2-8.6-3.6
			c-3.8-4.6-3.2-12.2-2.4-16.3c0.4-2,0.8-4.5,1.2-7.5c0.9-5.9,2.1-13.4,3.7-21.5l-1.1,0.7c-7.3,4.1-14.3,5.9-20.9,6.1
			c-5.8,25.1-10.3,50.7-8,63.9c0.6,3.6,2.7,6.2,5.7,7.2c3.5,1.1,7.6-0.2,11-3.5l2.4,2.5C136.1,146.1,132.2,147.8,128.5,147.8z
			 M43.4,71.8c1.3,7.9,4.7,15.9,7.6,18c0.7,0.5,1,0.4,1.1,0.3c0.5-0.2,2-0.5,1.6-3.6C53.1,81.9,48.7,75.1,43.4,71.8z M167.8,80.7
			c-0.3,0-0.8,0.1-1.5,0.6c-1.3,1-1.3,1.8-1.2,2.4c0.3,1.9,2.8,4.1,6.1,5.6c-0.3-5-1.6-7.9-2.8-8.5
			C168.3,80.8,168.1,80.7,167.8,80.7z M97.3,60.1c8.7,4.7,18,8.9,28.2,9.3c3.3-14.2,6.9-28,9.9-39.2c2.8-10.6,5.4-20.7,6-24.4
			C128.2,7.8,111.6,34,97.3,60.1z M174.5,15.9C174.5,15.9,174.4,15.9,174.5,15.9c-3,0.5-10.6,12.6-14.7,27.6
			c-1.5,4.7-2.9,9.4-4,14.1c17.5-16,22-37.3,19.1-41.3C174.7,15.9,174.6,15.9,174.5,15.9z M294.1,14.1
			C294.1,14.1,294.1,14.1,294.1,14.1c-3,0.5-10.6,12.6-14.7,27.6c-0.9,2.8-1.8,5.6-2.5,8.5c0.9-1.4,1.8-2.8,2.6-4.2
			c10.6-16.8,17.6-27.9,15-31.6C294.3,14.2,294.2,14.1,294.1,14.1z"/>
	</g>
</g>
</svg>
