<?xml version="1.0" encoding="utf-8"?>
<!-- Generator: Adobe Illustrator 22.1.0, SVG Export Plug-In . SVG Version: 6.00 Build 0)  -->
<svg version="1.1" id="Layer_1" xmlns="http://www.w3.org/2000/svg" xmlns:xlink="http://www.w3.org/1999/xlink" x="0px" y="0px"
	 viewBox="0 0 817.1 163.2" style="enable-background:new 0 0 817.1 163.2;" xml:space="preserve">
<style type="text/css">
	.st0{fill:#FFFFFF;}
</style>
<g>
	<path class="st0" d="M616.5,141.6c2.8-1.3,5.8-2.2,8.3-3.9c5.7-3.9,10.6-9.4,16.7-11.9c15.5-6.3,22.5-23.1,38.1-29.2
		c6.9-2.7,12.1-3.2,17.8,3.1c-12.3,9.4-25.8,17.7-30.2,34.1C681,128,691.3,118,700.6,107c7.1,5.8,8,9.5,5.2,17.8
		c-1.6,4.7-2.6,9.5-3.8,14.3c0.6,0.5,1.3,1,1.9,1.5c8.7-6.5,17.3-13,28.5-21.5c2-5.7,5.4-15.2,8.8-24.6c14.2,4.3,17.6,8.3,15.4,18.8
		c5.3-5.1,10.1-9.5,14.6-14.1c5.4-5.5,10.4-3.5,15.9,0.1c5.4,3.6,6.2,7.5,3.8,13.4c-3.6,8.8-6.6,17.9-9.8,26.9
		c0.6,0.6,1.2,1.1,1.8,1.7c8.3-6.4,16.5-12.9,24.8-19.3c0.7,0.1,1.3,0.2,2,0.3c-0.3,2.2,0.2,5.3-1,6.4c-8.9,7.5-18,14.8-27.3,21.8
		c-5.1,3.9-10.2,2.5-15.1-1.1c-5.1-3.7-4.1-8.1-2.6-12.9c2.8-8.6,5.6-17.3,8.9-27.7c-12,12.2-20.1,24.8-26.5,38.6
		c-1.4,3-1.8,7.6-7.4,5.9c-5.5-1.7-12.2-7.9-11.8-11.7c0.4-3.4,1.1-6.7,2.1-12.2c-4.3,3.7-7.2,6.3-10.2,8.7
		c-5.4,4.2-10.8,8.4-16.5,12.3c-4.8,3.2-10,4.4-15.4,0.5c-5.1-3.7-3.9-8.8-3.2-13.8c0.1-1.1,0.4-2.2,0.8-4.4
		c-6.4,4.7-11.9,8.9-17.6,13c-2.4,1.7-5.1,3.2-7.7,4.5c-3.6,1.7-7.2,4.4-11.4,0.9c-4.1-3.5-5.5-7.7-4.3-12.9c0.3-1.5,0.6-3.1,1.3-6
		c-6,4.8-10.8,8.8-15.8,12.6c-17.8,13.3-32.3,7.3-35.4-13.7c-8.3,2.5-16.7,4.8-25.1,7.5c-1.6,0.5-2.9,2.1-4.4,3.1
		c-5.2,3.3-10.1,7.3-15.8,9.6c-13.5,5.3-26-4.4-24.5-18.8c2-18.2,11.3-30.9,28.7-37.6c6.4-2.5,9.8,0.4,13,5.1
		c-17.5,17.7-23.6,29-22.1,40.3c6-0.4,12.9-6.9,13.2-12.9c0.4-9.9,5.9-16.9,11.9-24c10.2,7.4,11,10.4,6.9,25.9
		c9.1,0.1,19.8-7.9,21.6-16.3c6.9-31.4,20.5-59.2,43.5-82c4.3-4.3,9.6-7.8,14.5-11.4c4-3,7.9-2.9,11.8,0.6c4,3.5,8.7,6.9,6.5,13.1
		c-2.2,6-4.2,12.4-7.9,17.4c-12.8,17.3-25.8,34.4-39.6,50.9c-4.4,5.3-7.9,10.4-8.8,17.2c-0.8,7.2-1.8,14.4-2.7,21.5
		C615,140.6,615.8,141.1,616.5,141.6z M661.1,29.2c-16.6,15.2-25.4,35-33.2,55.3C641.8,67.8,654.8,50.5,661.1,29.2z"/>
	<path class="st0" d="M267.4,132.1c-6.3,5.1-11.8,9.9-17.6,14.3c-3.3,2.4-6.9,4.6-10.7,6.1c-8.5,3.3-15.9-2.8-14.9-11.8
		c0.3-2.2,0.7-4.4,1.1-7.2c-8,5.5-15.1,10.8-22.7,15.3c-4,2.4-8.2,6.5-13.7,2.3c-5.3-4.2-5.9-9.4-3.6-15.4c0.3-0.8,0.5-1.7,0.9-3.3
		c-8,6-15,11.8-22.5,16.7c-3.2,2.1-7.7,3.8-11.3,3.3c-8-1.1-11-7-8.8-15.1c0.9-3.5,2.1-7,3.2-10.5c1-3.2,2.2-6.4,3.5-10.4
		c-7.3-0.7-9.4,5.1-13.2,8c-3.8,2.9-3.6,3.1-7.9-0.8c3.5-3.8,7-7.5,10.4-11.2c-0.3-0.7-0.4-1.2-0.7-1.5c-2.7-2.9-8.2-6.6-7.6-8.4
		c1.8-5.9,5.6-11.4,9.4-16.5c0.5-0.6,7.1,1.3,7.3,2.7c1.1,5.8,5.6,7.4,9.6,9.8c15.1,9,15,9,9.1,25.3c-1.9,5.3-3.6,10.6-5.5,16
		c0.7,0.5,1.3,1.1,2,1.6c6.7-5.2,12.7-11.8,20.1-15.4c15.1-7.3,22.6-23.9,38.7-29.6c7.7-2.8,9.7-2.9,16.4,3.7
		c-12.3,9.3-25.7,17.6-30.4,33.9c14.2-5,24-15.7,33.8-26.5c6.9,5.1,8.1,9.4,5.3,17.3c-1.6,4.7-2.6,9.5-3.8,14.3
		c0.6,0.5,1.2,1,1.8,1.4c4.1-2.9,8-6.2,12.3-8.7c5-2.9,7.4-10.2,15-9.1c0.9,0.1,2.1-2.8,3.4-4c8-7,15.7-14.6,24.4-20.7
		c4.1-2.9,10.2-3,17.2-4.8c3.8-8.2,8.1-19.1,13.8-29.2c6.3-11.1,13.6-21.7,21.1-32.1c3.3-4.5,8-8.1,12.5-11.6
		c4.4-3.4,9.2-4.9,14.5-1c6.8,5.1,8.7,9.1,5.7,16.5c-3.2,7.8-6.7,15.7-11.7,22.4c-10.2,13.8-20.7,27.5-32.4,40
		c-11.2,12-10.5,26.4-12.8,41.9c13-1.9,19.4-11.6,28.5-17.8c3.1,1.7,5.3,3.5,1.4,6.8c-6.9,6-13.8,12.1-20.9,17.8
		c-15.5,12.4-29.2,3.2-29.7-15c-3.3,2.7-5.9,5-8.7,7c-6.2,4.3-12.3,8.8-18.9,12.4c-7.6,4.1-14.6-1.4-13.8-10.1
		C266.2,138.2,266.8,135.6,267.4,132.1z M344.2,81.9c5.3-7.4,10.8-14.7,15.9-22.2c3.8-5.7,7.3-11.6,10.3-17.8
		c1.9-4,2.6-8.5,4.4-14.5C364.4,33.7,347.8,63.6,344.2,81.9z M313.5,103c-11.1,9.4-21.4,17.6-27.1,31.2
		C300.4,132.4,311,120,313.5,103z"/>
	<path class="st0" d="M68.3,7.9c8.4,5.1,17.1,9.6,18.6,22.2c3.2-2,5.9-3.8,8.7-5.4c11.3-6.7,22.8-12.7,36.3-13.6
		c10-0.7,13.6,7.1,18.4,13.3c4.3,5.5,3.7,11.8-0.6,16.4c-8.9,9.4-18.2,18.6-28.2,26.8c-7,5.7-15.6,9.6-23.4,14.4
		c-4.6,2.8-9.2,5.7-15.1,9.4c3.8,1.1,6.1,2.1,8.4,2.3c12.4,1.1,18.3,9.8,22,20c1.3,3.7,0.3,9.3-1.7,12.9
		c-10.1,17.7-26.3,26.9-45.8,30.8c-2.3,0.5-5.7-1.2-7.8-2.9c-4.3-3.4-8-7.5-12.4-11.8c-2.9,3.5-5.8,7.2-8.9,10.7
		c-1.8,2-3.8,4.1-6,5.6c-4.3,3.1-9.3,6.4-14.5,2.9c-5.3-3.6-9.5-8.7-9-16c1-16,7.1-30.5,15.6-43.6c9.6-15,21.1-28.8,31.6-43.2
		c2.3-3.2,4.8-6.8,5.7-10.6C63.2,35.4,65.5,22.2,68.3,7.9z M101.9,111c-6.6-1.6-12.4-3.3-18.3-4.3c-6.3-1.1-12.9-1-15.6-9
		c-7,14.7-13.7,28.7-20.3,42.6C70.2,141.4,93.7,129.2,101.9,111z M75.7,76.7C92.1,65.5,107.8,55,123.1,44
		c5.7-4.1,10.4-9.5,15.3-14.7c1.5-1.6,2-4.2,3-6.4c-2.5-0.2-5.2-1.1-7.6-0.6c-14.7,3.2-26.1,12.8-38.6,20.3
		C82.5,50.3,78.2,62.1,75.7,76.7z M19.7,145c12.1-14.4,18.3-32,24.5-49.5C32.5,110.1,22.7,125.7,19.7,145z"/>
	<path class="st0" d="M444.1,105.2c-16.2,18.8-31.6,36.6-48.1,55.7c-3.7-4.5-6.5-7.9-9.8-12c23.3-22.7,38.3-51.4,51.3-81.8
		c1.9,0.7,3.7,1.3,5.3,1.9c1.8-22.9,3.6-45.6,5.4-68.3c0.8-0.3,1.5-0.6,2.3-0.8c6.7,6.6,13.6,13.1,19.9,20c1.2,1.3,0.5,4.7-0.1,7
		c-9,38.3-9,76.7-1.9,115.3c0.3,1.6,0.8,3.1,1.2,4.6c0.2,0.6,0.6,1.1,1.4,2.4c26.5-42.8,34.9-89.5,33.3-138.5
		c0.6-0.4,1.2-0.7,1.7-1.1c4.6,4.7,9,9.7,13.9,14.1c8,7.1,9.3,15.9,7.4,25.6c-7,36.4-19.5,70.6-40.7,101.3c-4.2,6-8,13.6-17.4,12.4
		c-9.1-1.1-12.3-8.6-14.6-15.6c-3.8-11.5-6.5-23.3-9.5-35C444.7,110.3,444.6,108.3,444.1,105.2z"/>
	<path class="st0" d="M286.3,134.2"/>
	<path class="st0" d="M313.5,103"/>
</g>
</svg>
