<?xml version="1.0" encoding="utf-8"?>
<!-- Generator: Adobe Illustrator 22.1.0, SVG Export Plug-In . SVG Version: 6.00 Build 0)  -->
<svg version="1.1" id="Layer_1" xmlns="http://www.w3.org/2000/svg" xmlns:xlink="http://www.w3.org/1999/xlink" x="0px" y="0px"
	 viewBox="0 0 340 160.8" style="enable-background:new 0 0 340 160.8;" xml:space="preserve">
<style type="text/css">
	.st0{fill:none;stroke:#607D8B;stroke-width:3.5;stroke-miterlimit:10;}
	.st1{fill:#607D8B;}
</style>
<path class="st0" d="M304.1,108.4c-4.2,5.7-8.5,6.7-11.7,5.6c-4.9-1.7-7.7-8.2-6.3-16.6c1.5-9.6,4.5-34.8,11.4-55.5
	c4.1-15.1,14.2-33.4,18.2-27.8s-6.1,19.2-23,46.3c0,0-12.4,28-21.6,41s-17.9,14.2-24.4,12.1c-2.9-0.9-5-3.3-6.2-6.5
	c-1.6-4.1-1.6-9.6,0.2-15.2c3.2-9.9,11-16.1,17.6-14c4,1.1,7.9,4,3.7,13.4 M265.3,62.6c0-3.8,4.4-10.2,39.4-0.2s29-3,29-3"/>
<ellipse transform="matrix(0.3099 -0.9508 0.9508 0.3099 -26.3705 155.1973)" class="st0" cx="93.7" cy="95.8" rx="18.8" ry="12.4"/>
<path class="st0" d="M151.8,62.6c0-3.8,4.4-10.2,39.4-0.2s29-3,29-3"/>
<ellipse transform="matrix(0.3099 -0.9508 0.9508 0.3099 52.9433 264.4989)" class="st0" cx="208.7" cy="95.8" rx="18.8" ry="12.4"/>
<g>
	<path class="st1" d="M241,154.7c-16,0-34.6-2.6-55.6-9.3c-27.9-8.5-67.9-16.7-100.1-7c-19.1,5.7-26.4,15.2-26.5,15.3l-2.8-2.1
		c0.3-0.4,7.9-10.4,27.9-16.5c33-10.1,73.9-1.8,102.5,6.9c40,12.7,69.1,9.8,86.5,5.2c22.2-5.9,33.1-16.3,35.7-21l3,1.7
		C306.4,137.4,282.3,154.7,241,154.7z M41.1,132.1c-5.4,0-10.6-1.5-15.1-4.3c-9.3-5.9-14.9-17-15.2-30.4c0-13.4,4.3-32.9,17.2-49.9
		c-6.5-2.2-11.8-5-15.6-8.4c-5.4-4.7-7.7-10.2-7-16.4c1-6.4,4.9-10.9,10.8-12.5c-0.1-1.7,0.2-3.4,1-5c1.2-2.3,4.4-5.2,9.5-5.8
		L27,2.7c-3.5,0.4-5.9,2.2-6.8,3.9c-0.5,0.9-0.7,1.9-0.7,2.8c5-0.3,9.9,1.4,11.9,4.4c1.3,2,1.3,4.3-0.2,6.4
		c-1.7,2.5-4.9,2.8-8.2,0.8c-2.5-1.5-5.1-4.4-6.3-7.7C14,14.3,9.8,16.6,8.8,23c-0.5,4.9,1.4,9.4,5.9,13.3c3.9,3.4,9.3,6.1,15.6,8.1
		C40.8,31.7,56.5,20.6,79,15.1c10.2-2.8,19.1-1.3,24.5,4.1c3.7,3.8,5.1,9.1,3.7,14.2c-2.1,7.6-9.7,13.5-20.7,16.2
		c-11.9,2.9-26.7,3.6-40.5,1.8c-5.2-0.7-10-1.6-14.4-2.9C18.6,65.1,14.3,84.2,14.3,97.3c0.3,12.2,5.2,22.2,13.6,27.5
		c7.5,4.7,16.8,5,26.3,0.8c8.3-3.6,21.7-14.5,25-29.5l0.1,0c-1.4-1.4-1.6-3.4-1.1-4.6c0.4-1,1.1-1.7,2.1-1.9c1.1-0.2,2.1,0.4,3,1.6
		l-2.4,1.8c0,0,0,0,0.1,0c0.3-0.1,0.5-0.3,0.5-0.4l0,0c0,0-0.2,0.8,0.7,1.2c4.6,2.2,18.9,0.7,39.6-12.7c0.5-0.3,1-0.6,1.4-1
		c1.1-4.3,2.2-6.3,3.8-6.9c0.8-0.3,1.7-0.2,2.5,0.4l-1,1.4l1-1.4c0.6,0.4,0.9,1.1,0.9,1.9c-0.1,1.6-1.7,4.4-4.1,6.6
		c-0.1,0.5-0.2,1-0.4,1.6c4.3-6.3,10.7-9.6,16.2-7.8c9,2.9,7.6,13.9,5.7,21.9c0,0-1.3,5.6-1.6,6.9l-0.1,0.6c-0.3,1.5-1,4.3-0.3,5.2
		c0.3,0.3,0.9,0.4,1.4,0.4c11.9,0,24.7-32.7,29.7-48.3c1.5-7.1,3.4-14.4,5.6-21.2c3.1-11.5,11.2-28.9,17.4-30
		c1.5-0.3,2.9,0.3,3.9,1.7c4,5.6-2.3,15.6-14.9,35.5c-2.4,3.8-5.1,8-7.9,12.6c-0.2,0.5-0.4,1.3-0.7,2.3c-2.4,11.2-3.9,21.9-5,28.9
		c-0.3,2.1-0.6,3.9-0.8,5.3c-0.8,5.3-0.1,10.2,1.9,12.8c0.8,1.1,1.8,1.7,2.9,1.8c3.3,0.4,8.7,0.9,16.5-19.6
		c-0.2-0.9-0.1-1.9,0.2-3.1l3.4,0.9c-0.2,0.9-0.2,1.5,0,1.9l0.3,0.1c0,0.1-0.1,0.2-0.1,0.2c0.1,0.1,0.2,0.2,0.2,0.2
		c1.7,1.4,7,1,11.2-0.8c4.6-2,9.3-4.5,12.7-6.5c1.4-2.4,3.5-5.4,5.5-5.9c0.8-0.2,1.5,0,2.1,0.5c0.7,0.6,1,1.4,0.9,2.2
		c-0.2,1.6-2.7,3.7-5.9,5.7c-0.3,0.5-0.5,0.9-0.7,1.4c-0.9,2.3-1.9,6-2.9,10.7c-0.9,4.2-1.4,7.9-1.4,8.3c0,0.9,0,2.4,0.8,2.9
		c0.6,0.3,1.3,0.3,2.1,0c2.9-1,8.1-5.9,16.4-23.5l3.2,1.5c-7.2,15.2-13.2,23.5-18.4,25.3c-1.7,0.6-3.3,0.6-4.9-0.2l-0.1-0.1
		c-1.3-0.7-2.8-2.4-2.7-6.1c0-0.8,0.7-4.9,1.5-8.9c0.5-2.5,1.3-5.7,2.1-8.5c-3.8,2.1-7.6,3.7-8.9,4.3c-3.6,1.6-10.4,3.1-14.1,0.8
		c-6,15.1-11.4,20.5-19.3,19.6c-2.1-0.2-3.9-1.3-5.3-3.1c-2.6-3.4-3.6-9.2-2.6-15.5c0.2-1.4,0.5-3.2,0.8-5.3
		c0.4-2.6,0.8-5.7,1.4-9.2c-6.3,14.9-15.7,31.7-26.1,31.7c-1.8,0-3.2-0.6-4.1-1.7c-1.8-2.2-1-5.6-0.4-8.1l0.1-0.5
		c0.3-1.3,1.6-6.9,1.6-6.9c3.2-13.7-0.1-16.7-3.4-17.7c-5.5-1.8-12.6,4.1-15.4,12.9c-3.2,9.7-6.8,21.6-6.8,21.7l-3.4-0.7
		c0.2-2,2.2-10.5,5.1-22.2c0.5-2.1,1-4,1.4-5.8c-18.1,11.4-32.3,14.5-39.5,12.5c-4.1,17-19.2,27.8-26.8,31.1
		C50.7,131,45.8,132.1,41.1,132.1z M200.5,14.7C200.4,14.7,200.4,14.7,200.5,14.7c-3,0.5-10.6,12.6-14.7,27.6
		c-0.9,2.8-1.8,5.6-2.5,8.5c0.9-1.4,1.8-2.8,2.6-4.2c10.6-16.8,17.6-27.9,15-31.6C200.6,14.7,200.5,14.7,200.5,14.7z M34,45.5
		c16.2,4.3,36.8,4.3,51.7,0.6c9.8-2.4,16.4-7.4,18.2-13.8c1.1-3.9,0.1-7.9-2.8-10.8c-4.4-4.5-12.1-5.6-21.1-3.2
		C58.9,23.7,44.1,33.8,34,45.5z M20.4,13c1,2.2,2.8,4.1,4.5,5.2c0.8,0.5,2.7,1.4,3.5,0.2c0.8-1.2,0.5-2,0.2-2.5
		C27.5,14.2,24.2,12.9,20.4,13z"/>
</g>
</svg>
